HIERARCHY
ROOT Hips
{
	OFFSET -3.958830 18.904000 13.208200
	CHANNELS 6 Xposition Yposition Zposition Zrotation Yrotation Xrotation 
	JOINT LHipJoint
	{
		OFFSET 0.000000 0.000000 0.000000
		CHANNELS 3 Zrotation Yrotation Xrotation
		JOINT LeftUpLeg
		{
			OFFSET 1.800000 -1.400000 0.085000
			CHANNELS 3 Zrotation Yrotation Xrotation
			JOINT LeftLeg
			{
				OFFSET 2.215000 -6.000000 0.000000
				CHANNELS 3 Zrotation Yrotation Xrotation
				JOINT LeftFoot
				{
					OFFSET 2.500000 -6.900000 0.000000
					CHANNELS 3 Zrotation Yrotation Xrotation
					JOINT LeftToeBase
					{
						OFFSET 0.200000 -0.500000 1.950000
						CHANNELS 3 Zrotation Yrotation Xrotation
						End Site
						{
							OFFSET 0.000000 0.000000 0.000000
						}
					}
				}
			}
		}
	}
	JOINT RHipJoint
	{
		OFFSET 0.000000 0.000000 0.000000
		CHANNELS 3 Zrotation Yrotation Xrotation
		JOINT RightUpLeg
		{
			OFFSET -1.800000 -1.400000 0.085000
			CHANNELS 3 Zrotation Yrotation Xrotation
			JOINT RightLeg
			{
				OFFSET -2.215000 -6.000000 0.000000
				CHANNELS 3 Zrotation Yrotation Xrotation
				JOINT RightFoot
				{
					OFFSET -2.500000 -6.900000 0.000000
					CHANNELS 3 Zrotation Yrotation Xrotation
					JOINT RightToeBase
					{
						OFFSET -0.200000 -0.500000 1.950000
						CHANNELS 3 Zrotation Yrotation Xrotation
						End Site
						{
							OFFSET 0.000000 0.000000 0.000000
						}
					}
				}
			}
		}
	}
	JOINT LowerBack
	{
		OFFSET 0.000000 0.000000 0.000000
		CHANNELS 3 Zrotation Yrotation Xrotation
		JOINT Spine
		{
			OFFSET -0.087000 1.940000 -0.288900
			CHANNELS 3 Zrotation Yrotation Xrotation
			JOINT Spine1
			{
				OFFSET 0.000000 1.950000 0.060000
				CHANNELS 3 Zrotation Yrotation Xrotation
				JOINT Neck
				{
					OFFSET 0.000000 0.000000 0.000000
					CHANNELS 3 Zrotation Yrotation Xrotation
					JOINT Neck1
					{
						OFFSET 0.000000 1.600000 0.340000
						CHANNELS 3 Zrotation Yrotation Xrotation
						JOINT Head
						{
							OFFSET 0.000000 1.667000 -0.240000
							CHANNELS 3 Zrotation Yrotation Xrotation
							End Site
							{
								OFFSET 0.000000 0.000000 0.000000
							}
						}
					}
				}
				JOINT LeftShoulder
				{
					OFFSET 0.000000 0.000000 0.000000
					CHANNELS 3 Zrotation Yrotation Xrotation
					JOINT LeftArm
					{
						OFFSET 2.700000 1.550000 -0.730000
						CHANNELS 3 Zrotation Yrotation Xrotation
						JOINT LeftForeArm
						{
							OFFSET 5.450000 0.000000 0.000000
							CHANNELS 3 Zrotation Yrotation Xrotation
							JOINT LeftHand
							{
								OFFSET 3.450000 0.000000 0.000000
								CHANNELS 3 Zrotation Yrotation Xrotation
								JOINT LeftHandIndex1
								{
									OFFSET 0.750000 0.000000 0.000000
									CHANNELS 3 Zrotation Yrotation Xrotation
									End Site
									{
										OFFSET 0.000000 0.000000 0.000000
									}
								}
							}
						}
					}
				}
				JOINT RightShoulder
				{
					OFFSET 0.000000 0.000000 0.000000
					CHANNELS 3 Zrotation Yrotation Xrotation
					JOINT RightArm
					{
						OFFSET -2.700000 1.550000 -0.730000
						CHANNELS 3 Zrotation Yrotation Xrotation
						JOINT RightForeArm
						{
							OFFSET -5.450000 0.000000 0.000000
							CHANNELS 3 Zrotation Yrotation Xrotation
							JOINT RightHand
							{
								OFFSET -3.450000 0.000000 0.000000
								CHANNELS 3 Zrotation Yrotation Xrotation
								JOINT RightHandIndex1
								{
									OFFSET -0.750000 0.000000 0.000000
									CHANNELS 3 Zrotation Yrotation Xrotation
									End Site
									{
										OFFSET 0.000000 0.000000 0.000000
									}
								}
							}
						}
					}
				}
			}
		}
	}
}
MOTION
Frames: 4
Frame Time: 0.016667
-0.125270 16.841740 -2.240150 -1.202284 -15.132023 1.407472 -15.154980 12.311281 3.605441 8.511838 -6.362516 -23.312380 -15.356473 14.072877 38.735572 -0.318787 9.187403 1.587628 0.717010 0.436700 0.109960 18.564088 -9.200738 3.733684 2.488920 7.408191 -42.841576 -4.533698 -3.372359 29.540609 -0.248835 -3.390900 3.463336 0.506740 0.773280 0.293830 -4.057542 -2.587522 -7.838753 13.035481 -9.244015 18.848985 -8.888121 -5.296885 12.054225 0.873008 -8.708334 -7.604666 -16.836621 9.732653 24.308664 -2.507410 4.160160 -16.536940 -20.569400 -3.098858 2.416594 -25.094399 -3.732153 0.682625 176.993570 -53.637957 171.659186 -4.034423 3.150029 0.763580 0.490780 -0.227960 0.563310 18.731791 5.817579 4.578036 19.772715 -13.776107 -11.597468 21.860784 62.346621 8.758507 1.047003 -2.010088 -0.500030 0.687930 0.019300 -0.239360 
-0.083850 16.734930 -2.252470 -0.786634 -15.667974 1.475303 -15.195301 12.307222 3.735158 8.324105 -6.776288 -23.639629 -16.149957 14.614822 39.589782 -0.201950 9.398016 1.505117 0.730910 0.451720 0.143410 18.519815 -9.093893 3.748975 2.220026 7.319143 -43.126123 -3.214435 -3.331753 26.274542 -0.189378 -2.883161 3.625535 0.486660 0.701540 0.289850 -3.931204 -2.768454 -7.956496 12.087422 -9.158097 20.547291 -7.753151 -5.431717 11.200935 0.789456 -8.636183 -7.840724 -16.590596 9.424811 23.800009 -2.761830 4.175210 -17.678010 -20.645515 -3.499547 2.363774 -22.927394 -1.680184 -0.704234 -174.540225 -55.755357 155.534350 -3.953917 3.204225 0.779380 0.436740 -0.183850 0.551000 19.070421 6.378476 4.981599 20.958205 -14.285337 -12.190787 26.804462 64.480976 11.419762 1.100559 -2.040116 -0.466650 0.645130 -0.012890 -0.242100 
-0.035940 16.622710 -2.264230 -0.173262 -16.118082 1.374495 -15.244344 12.281453 3.887711 7.903249 -7.378758 -24.159357 -16.965445 15.303411 40.886992 -0.080813 9.747597 1.407357 0.697610 0.386850 0.142860 18.475360 -8.950030 3.779463 1.429503 7.274488 -43.911787 -1.817196 -3.621970 25.459080 -0.169965 -2.776410 3.667090 0.432060 0.685650 0.290230 -3.795365 -3.001090 -8.097988 11.095748 -9.093676 22.376970 -6.683935 -5.561485 9.844293 0.763687 -8.682503 -8.266768 -16.623789 9.465104 23.230187 -3.239810 4.362300 -17.754890 -20.871834 -4.229127 2.344644 -20.950667 -0.067931 -1.878842 -163.197681 -57.646360 135.993712 -3.918634 3.221262 0.810850 0.416010 -0.177220 0.541430 19.476533 7.305634 5.657917 22.602978 -14.668639 -12.756598 32.235085 66.312779 14.543138 1.138382 -2.043173 -0.473890 0.621330 -0.010810 -0.253640 
0.009740 16.527070 -2.276040 0.234420 -16.381839 0.630644 -15.289118 12.316231 3.996696 7.520310 -7.853802 -24.063854 -17.448595 15.961162 42.361825 0.104762 10.049251 1.320129 0.648700 0.337360 0.133520 18.427259 -8.840824 3.814114 0.863460 7.238154 -44.709552 -1.777651 -3.877451 27.208503 -0.214261 -2.974986 3.597010 0.355900 0.636860 0.289490 -3.645429 -3.274676 -8.246777 10.177938 -9.023455 24.952759 -5.503232 -5.639540 8.300596 0.908961 -8.692678 -8.758309 -16.786243 9.538737 23.513718 -4.252620 4.878170 -18.107240 -21.367039 -5.289639 2.263055 -20.089044 0.533342 -3.381580 -148.665442 -60.234770 114.778338 -3.873302 3.209367 0.819140 0.375880 -0.139380 0.522050 19.819878 8.528163 6.480572 24.677870 -14.561928 -13.395775 38.164785 67.637622 17.983120 1.229579 -2.016519 -0.441490 0.575700 -0.018190 -0.244540 
